HIERARCHY
ROOT Hips
{
	OFFSET 0.000000 0.000000 0.000000
	CHANNELS 6 Xposition Yposition Zposition Zrotation Yrotation Xrotation 
	JOINT LHipJoint
	{
		OFFSET 0.000000 0.000000 0.000000
		CHANNELS 3 Zrotation Yrotation Xrotation
		JOINT LeftUpLeg
		{
			OFFSET 1.363060 -1.794630 0.839290
			CHANNELS 3 Zrotation Yrotation Xrotation
			JOINT LeftLeg
			{
				OFFSET 2.448110 -6.726130 0.000000
				CHANNELS 3 Zrotation Yrotation Xrotation
				JOINT LeftFoot
				{
					OFFSET 2.562200 -7.039590 0.000000
					CHANNELS 3 Zrotation Yrotation Xrotation
					JOINT LeftToeBase
					{
						OFFSET 0.157640 -0.433110 2.322550
						CHANNELS 3 Zrotation Yrotation Xrotation
						End Site
						{
							OFFSET 0.000000 0.000000 0.000000
						}
					}
				}
			}
		}
	}
	JOINT RHipJoint
	{
		OFFSET 0.000000 0.000000 0.000000
		CHANNELS 3 Zrotation Yrotation Xrotation
		JOINT RightUpLeg
		{
			OFFSET -1.305520 -1.794630 0.839290
			CHANNELS 3 Zrotation Yrotation Xrotation
			JOINT RightLeg
			{
				OFFSET -2.542530 -6.985550 0.000000
				CHANNELS 3 Zrotation Yrotation Xrotation
				JOINT RightFoot
				{
					OFFSET -2.568260 -7.056230 0.000000
					CHANNELS 3 Zrotation Yrotation Xrotation
					JOINT RightToeBase
					{
						OFFSET -0.164730 -0.452590 2.363150
						CHANNELS 3 Zrotation Yrotation Xrotation
						End Site
						{
							OFFSET 0.000000 0.000000 0.000000
						}
					}
				}
			}
		}
	}
	JOINT LowerBack
	{
		OFFSET 0.000000 0.000000 0.000000
		CHANNELS 3 Zrotation Yrotation Xrotation
		JOINT Spine
		{
			OFFSET 0.028270 2.035590 -0.193380
			CHANNELS 3 Zrotation Yrotation Xrotation
			JOINT Spine1
			{
				OFFSET 0.056720 2.048850 -0.042750
				CHANNELS 3 Zrotation Yrotation Xrotation
				JOINT Neck
				{
					OFFSET 0.000000 0.000000 0.000000
					CHANNELS 3 Zrotation Yrotation Xrotation
					JOINT Neck1
					{
						OFFSET -0.054170 1.746240 0.172020
						CHANNELS 3 Zrotation Yrotation Xrotation
						JOINT Head
						{
							OFFSET 0.104070 1.761360 -0.123970
							CHANNELS 3 Zrotation Yrotation Xrotation
							End Site
							{
								OFFSET 0.000000 0.000000 0.000000
							}
						}
					}
				}
				JOINT LeftShoulder
				{
					OFFSET 0.000000 0.000000 0.000000
					CHANNELS 3 Zrotation Yrotation Xrotation
					JOINT LeftArm
					{
						OFFSET 3.362410 1.200890 -0.311210
						CHANNELS 3 Zrotation Yrotation Xrotation
						JOINT LeftForeArm
						{
							OFFSET 4.983000 -0.000000 -0.000000
							CHANNELS 3 Zrotation Yrotation Xrotation
							JOINT LeftHand
							{
								OFFSET 3.483560 -0.000000 -0.000000
								CHANNELS 3 Zrotation Yrotation Xrotation
								JOINT LeftFingerBase
								{
									OFFSET 0.000000 0.000000 0.000000
									CHANNELS 3 Zrotation Yrotation Xrotation
									JOINT LeftHandIndex1
									{
										OFFSET 0.715260 -0.000000 -0.000000
										CHANNELS 3 Zrotation Yrotation Xrotation
										End Site
										{
											OFFSET 0.000000 0.000000 0.000000
										}
									}
								}
								JOINT LThumb
								{
									OFFSET 0.000000 0.000000 0.000000
									CHANNELS 3 Zrotation Yrotation Xrotation
									End Site
									{
										OFFSET 0.000000 0.000000 0.000000
									}
								}
							}
						}
					}
				}
				JOINT RightShoulder
				{
					OFFSET 0.000000 0.000000 0.000000
					CHANNELS 3 Zrotation Yrotation Xrotation
					JOINT RightArm
					{
						OFFSET -3.136600 1.374050 -0.404650
						CHANNELS 3 Zrotation Yrotation Xrotation
						JOINT RightForeArm
						{
							OFFSET -5.241900 -0.000000 -0.000000
							CHANNELS 3 Zrotation Yrotation Xrotation
							JOINT RightHand
							{
								OFFSET -3.444170 -0.000000 -0.000000
								CHANNELS 3 Zrotation Yrotation Xrotation
								JOINT RightFingerBase
								{
									OFFSET 0.000000 0.000000 0.000000
									CHANNELS 3 Zrotation Yrotation Xrotation
									JOINT RightHandIndex1
									{
										OFFSET -0.622530 -0.000000 -0.000000
										CHANNELS 3 Zrotation Yrotation Xrotation
										End Site
										{
											OFFSET 0.000000 0.000000 0.000000
										}
									}
								}
								JOINT RThumb
								{
									OFFSET 0.000000 0.000000 0.000000
									CHANNELS 3 Zrotation Yrotation Xrotation
									End Site
									{
										OFFSET 0.000000 0.000000 0.000000
									}
								}
							}
						}
					}
				}
			}
		}
	}
}
MOTION
Frames: 9
Frame Time: 0.008333
9.982105 21.487617 1.076163 55.847241 -81.549929 -10.804996 -9.317139 -0.618312 3.500104 -12.186816 -9.395833 -77.788167 1.434725 4.569580 72.684198 1.881839 8.896731 1.362848 1.780100 0.000000 -52.454100 10.839051 3.022215 3.015159 -0.760189 -4.035350 -79.055556 -2.242363 -6.636609 80.764556 -1.902793 -6.582440 -12.447780 0.182000 -0.000000 -68.057000 -3.636665 -2.634442 -5.165219 -0.545786 -2.428304 -3.205114 -1.383953 -2.612234 3.285709 5.718285 -20.385733 -9.017430 -0.183850 0.026185 -0.558537 0.000000 0.000000 0.000000 11.954994 9.450619 1.146985 -40.245713 -5.044041 -13.741246 -179.212985 -78.867721 -179.976283 -2.606546 -0.667236 0.026943 -0.008191 0.478061 0.000000 0.000000 0.000000 0.000000 0.000000 0.000000 0.000000 0.108005 -16.589381 1.953671 17.216831 12.596903 -0.529693 179.625195 84.115055 179.988676 -3.573334 3.368370 -0.121195 0.167898 -0.369689 -0.000000 0.000000 0.000000 0.000000 0.000000 0.000000 0.000000 
9.912451 21.564123 1.059549 56.135876 -81.211705 -9.296712 -9.110372 -0.935718 3.577263 -12.394995 -10.788546 -82.966085 1.815214 5.030005 76.632217 2.021375 9.414066 -0.308448 1.658000 -0.000000 -50.845400 10.714967 3.391286 3.363333 -1.413289 -3.666060 -84.459438 -2.738589 -7.157731 84.630782 -1.952332 -6.540262 -14.245265 0.398500 -0.000000 -66.926600 -3.615581 -2.680328 -5.378910 -0.514667 -2.479181 -3.243078 -1.237449 -2.670946 3.426221 5.546053 -20.885167 -9.034404 -0.026784 0.040385 -0.581312 0.000000 0.000000 0.000000 12.248678 9.637854 1.172879 -39.568994 -4.806474 -15.058038 -179.214652 -78.893469 -179.974771 -2.801059 -0.599332 0.027172 -0.006003 0.479366 0.000000 0.000000 0.000000 0.000000 0.000000 0.000000 0.000000 -0.533197 -17.079737 1.962851 16.221979 10.729843 -2.787438 179.582457 83.095147 179.989124 -3.407621 3.311217 -0.114172 0.166627 -0.373418 -0.000000 0.000000 0.000000 0.000000 0.000000 0.000000 0.000000 
9.841207 21.627447 1.043734 56.401316 -80.963432 -7.734094 -8.892363 -1.233974 3.664007 -12.370746 -12.213932 -88.186194 2.212241 5.482731 80.241142 2.161182 9.904859 -1.815311 1.530300 -0.000000 -49.209900 10.569473 3.733341 3.754639 -2.134032 -3.228169 -89.927860 -3.256735 -7.643299 88.162166 -1.997535 -6.479165 -15.846909 0.589999 -0.000000 -65.848600 -3.536907 -2.730625 -5.640388 -0.473107 -2.538756 -3.291176 -1.112269 -2.738050 3.573262 5.364214 -21.332777 -9.053359 0.120741 0.053972 -0.605525 0.000000 0.000000 0.000000 12.525902 9.823890 1.210096 -38.809967 -4.313903 -16.247904 -179.206705 -78.767438 -179.972984 -3.038518 -0.518873 0.027201 -0.003158 0.479027 0.000000 0.000000 0.000000 0.000000 0.000000 0.000000 0.000000 -1.138946 -17.507957 1.990049 15.276989 8.885861 -4.976735 179.546029 82.191026 179.989755 -3.226112 3.277095 -0.107450 0.164957 -0.376917 0.000000 0.000000 0.000000 0.000000 0.000000 0.000000 0.000000 
9.767909 21.678623 1.028360 56.668026 -80.814125 -6.179741 -8.668186 -1.504771 3.742128 -12.118472 -13.609188 -93.392731 2.616273 5.928247 83.510689 2.291648 10.327912 -3.172839 1.394600 0.000000 -47.616301 10.405603 4.045473 4.172681 -2.929035 -2.736410 -95.391716 -3.782133 -8.086562 91.351034 -2.037928 -6.399652 -17.270386 0.758000 -0.000000 -64.836500 -3.413297 -2.786751 -5.915549 -0.424593 -2.607660 -3.341546 -1.011784 -2.813799 3.722637 5.192200 -21.713682 -9.088381 0.256745 0.067081 -0.635545 0.000000 0.000000 0.000000 12.778298 10.028038 1.266160 -37.983956 -3.576703 -17.339987 -179.187677 -78.483288 -179.970890 -3.321968 -0.433603 0.027127 0.000296 0.477398 0.000000 0.000000 0.000000 0.000000 0.000000 0.000000 0.000000 -1.684316 -17.858952 2.035077 14.381419 7.081267 -7.109541 179.514738 81.378476 179.990532 -3.031308 3.258289 -0.100828 0.162884 -0.380200 -0.000000 0.000000 0.000000 0.000000 0.000000 0.000000 0.000000 
9.692214 21.719011 1.013092 56.948279 -80.766696 -4.684559 -8.444206 -1.742037 3.794036 -11.660053 -14.914301 -98.522188 3.018150 6.367406 86.445750 2.403198 10.646461 -4.386209 1.252200 -0.000000 -46.139700 10.226317 4.325596 4.596273 -3.792425 -2.210881 -100.775302 -4.298902 -8.484087 94.192406 -2.072749 -6.301837 -18.528590 0.903100 -0.000000 -63.903900 -3.257750 -2.849491 -6.165596 -0.372758 -2.686050 -3.385200 -0.938249 -2.897909 3.869032 5.048542 -22.014690 -9.151987 0.380196 0.079905 -0.675329 0.000000 0.000000 0.000000 12.999364 10.265177 1.346718 -37.113594 -2.618537 -18.367920 -179.156778 -78.043540 -179.968484 -3.650844 -0.351988 0.027053 0.004324 0.474915 0.000000 0.000000 0.000000 0.000000 0.000000 0.000000 0.000000 -2.150549 -18.119786 2.097503 13.546937 5.323911 -9.200974 179.487043 80.630992 179.991435 -2.823229 3.248010 -0.094005 0.160391 -0.383255 0.000000 0.000000 0.000000 0.000000 0.000000 0.000000 0.000000 
9.614144 21.750160 0.997626 57.245584 -80.818543 -3.292064 -8.226657 -1.942614 3.804694 -11.033264 -16.078996 -103.507432 3.409213 6.801010 89.053288 2.487278 10.832056 -5.451505 1.108300 -0.000000 -44.853500 10.034016 4.572840 5.001677 -4.705693 -1.671843 -106.002283 -4.791368 -8.835729 96.683612 -2.101491 -6.187389 -19.629523 1.025600 0.000000 -63.060600 -3.083084 -2.918982 -6.351210 -0.321205 -2.773509 -3.413114 -0.892632 -2.989487 4.006061 4.948871 -22.224300 -9.253092 0.490722 0.092616 -0.727766 0.000000 0.000000 0.000000 13.184648 10.540109 1.455207 -36.226024 -1.467235 -19.367191 -179.114125 -77.461536 -179.965815 -4.017853 -0.281606 0.027080 0.008819 0.471999 0.000000 0.000000 0.000000 0.000000 0.000000 0.000000 0.000000 -2.526173 -18.279086 2.176791 12.793743 3.614667 -11.266055 179.461216 79.922563 179.992462 -2.600207 3.241964 -0.086879 0.157443 -0.386076 0.000000 0.000000 0.000000 0.000000 0.000000 0.000000 0.000000 
9.533726 21.773677 0.981687 57.564973 -80.962690 -2.041253 -8.020884 -2.105799 3.763772 -10.287445 -17.067789 -108.281441 3.781219 7.228974 91.339831 2.537545 10.868350 -6.358409 0.970599 0.000000 -43.821800 9.830742 4.787020 5.366053 -5.639670 -1.134284 -111.001787 -5.245146 -9.143885 98.823798 -2.124220 -6.060289 -20.577117 1.126000 0.000000 -62.312500 -2.902302 -2.994686 -6.438343 -0.273596 -2.868856 -3.417479 -0.874574 -3.086912 4.127033 4.904715 -22.333637 -9.395612 0.588186 0.105302 -0.794271 0.000000 0.000000 0.000000 13.332232 10.845685 1.592743 -35.349946 -0.150670 -20.371999 -179.060535 -76.757716 -179.962969 -4.411354 -0.227132 0.027409 0.013619 0.468974 0.000000 0.000000 0.000000 0.000000 0.000000 0.000000 0.000000 -2.806253 -18.327742 2.272085 12.147765 1.950133 -13.314403 179.435509 79.229574 179.993616 -2.361346 3.238059 -0.079250 0.154038 -0.388655 0.000000 0.000000 0.000000 0.000000 0.000000 0.000000 0.000000 
9.450990 21.791064 0.965099 57.916032 -81.188816 -0.966547 -7.830771 -2.232783 3.666506 -9.476846 -17.862472 -112.780899 4.126126 7.649476 93.308916 2.550625 10.752591 -7.092851 0.847800 0.000000 -43.093799 9.618279 4.968326 5.669916 -6.558132 -0.604320 -115.713287 -5.647882 -9.412477 100.613009 -2.141901 -5.928124 -21.371158 1.204900 -0.000000 -61.663100 -2.728096 -3.075602 -6.401757 -0.233369 -2.970304 -3.392241 -0.882173 -3.188022 4.226425 4.922578 -22.344059 -9.578646 0.673086 0.117998 -0.874848 0.000000 0.000000 0.000000 13.441528 11.169014 1.757836 -34.513540 1.299115 -21.409553 -178.997476 -75.956629 -179.960061 -4.816154 -0.189374 0.028137 0.018515 0.466035 0.000000 0.000000 0.000000 0.000000 0.000000 0.000000 0.000000 -2.992951 -18.267638 2.380993 11.635747 0.341800 -15.347054 179.408524 78.535950 179.994891 -2.108307 3.237049 -0.071116 0.150217 -0.391039 0.000000 0.000000 0.000000 0.000000 0.000000 0.000000 0.000000 
9.366084 21.803905 0.947734 58.312234 -81.484828 -0.099767 -7.658151 -2.326034 3.513621 -8.653787 -18.462556 -116.953706 4.436102 8.058842 94.960449 2.526498 10.495363 -7.639566 0.748100 0.000000 -42.699700 9.398310 5.117105 5.898486 -7.422909 -0.078461 -120.085940 -5.989347 -9.645759 102.050811 -2.156059 -5.800620 -22.008013 1.263400 0.000000 -61.113000 -2.572459 -3.160227 -6.226778 -0.203572 -3.075422 -3.333356 -0.912211 -3.290097 4.300945 5.003649 -22.271749 -9.796946 0.746689 0.130706 -0.968154 0.000000 0.000000 0.000000 13.514873 11.497661 1.946190 -33.742871 2.839011 -22.495617 -178.927536 -75.092015 -179.957214 -5.216047 -0.166218 0.029170 0.023316 0.463294 0.000000 0.000000 0.000000 0.000000 0.000000 0.000000 0.000000 -3.093802 -18.117204 2.498827 11.280472 -1.175619 -17.352936 179.379800 77.843040 179.996263 -1.845519 3.241742 -0.062876 0.146047 -0.393319 0.000000 0.000000 0.000000 0.000000 0.000000 0.000000 0.000000 
